# xmcd
#
# Track frame offsets:
#	150
#	13135
#	27975
#	42541
#	52264
#	73480
#	91402
#	108713
#	119819
#	135061
#	149024
#	163792
#	181313
#	206192
#	223527
#	258365
#	274718
#	291686
#	302234
#	313493
#	325512
#	339056
#	347821
#
# Disc length: 4744 seconds
#
# Revision: 2
# Processed by: cddbd v1.4PL0 Copyright (c) Steve Scherf et al.
# Submitted via: audiograbber 1.80
#
DISCID=81128617
DTITLE=Jack Johnson - Acoustic Mix
DYEAR=1900
DGENRE=
TTITLE0=Inaudible Melodies (Acoustic)
TTITLE1=Middle Man
TTITLE2=Posters
TTITLE3=Sexy Plexi
TTITLE4=Flake
TTITLE5=Bubble Toes
TTITLE6=Fortunate Fools
TTITLE7=The News
TTITLE8=Drink the Water
TTITLE9=Mud Football
TTITLE10=F-Stop Blues
TTITLE11=Losing Hope
TTITLE12=It's All Understood
TTITLE13=Flake - Live
TTITLE14=Demo - Who's To Say/Inaudible Memories/Drink the Water
TTITLE15=Poor Taylor (Demo)
TTITLE16=Rocky Racoon (Live)
TTITLE17=Rodeo Clowns (Acoustic)
TTITLE18=Stars (Demo)
TTITLE19=Drink the Water (Acoustic)
TTITLE20=Posters (Acoustic)
TTITLE21=Nice Car, Boy
TTITLE22=Bubble Toes - Alt Version
EXTD=
EXTT0=
EXTT1=
EXTT2=
EXTT3=
EXTT4=
EXTT5=
EXTT6=
EXTT7=
EXTT8=
EXTT9=
EXTT10=
EXTT11=
EXTT12=
EXTT13=
EXTT14=
EXTT15=
EXTT16=
EXTT17=
EXTT18=
EXTT19=
EXTT20=
EXTT21=
EXTT22=
PLAYORDER=
